<?xml version="1.0" encoding="UTF-8" standalone="no"?>
<!-- Created with Inkscape (http://www.inkscape.org/) -->

<svg
   width="240mm"
   height="120mm"
   viewBox="0 0 240 120"
   version="1.1"
   id="svg8"
   inkscape:version="1.4 (e7c3feb100, 2024-10-09)"
   sodipodi:docname="ilojucks.svg"
   xmlns:inkscape="http://www.inkscape.org/namespaces/inkscape"
   xmlns:sodipodi="http://sodipodi.sourceforge.net/DTD/sodipodi-0.dtd"
   xmlns="http://www.w3.org/2000/svg"
   xmlns:svg="http://www.w3.org/2000/svg"
   xmlns:rdf="http://www.w3.org/1999/02/22-rdf-syntax-ns#"
   xmlns:cc="http://creativecommons.org/ns#"
   xmlns:dc="http://purl.org/dc/elements/1.1/">
  <defs
     id="defs2" />
  <sodipodi:namedview
     id="base"
     pagecolor="#ffffff"
     bordercolor="#666666"
     borderopacity="1.0"
     inkscape:pageopacity="0.0"
     inkscape:pageshadow="2"
     inkscape:zoom="0.99437388"
     inkscape:cx="283.59554"
     inkscape:cy="182.52692"
     inkscape:document-units="mm"
     inkscape:current-layer="layer1"
     showgrid="false"
     showborder="true"
     width="200mm"
     showguides="true"
     inkscape:guide-bbox="true"
     inkscape:window-width="1920"
     inkscape:window-height="1080"
     inkscape:window-x="0"
     inkscape:window-y="0"
     inkscape:window-maximized="1"
     inkscape:showpageshadow="0"
     inkscape:pagecheckerboard="0"
     inkscape:deskcolor="#505050">
    <inkscape:grid
       type="xygrid"
       id="grid815"
       units="mm"
       spacingx="10"
       spacingy="10"
       empspacing="4"
       dotted="false"
       originx="0"
       originy="0" />
  </sodipodi:namedview>
  <metadata
     id="metadata5">
    <rdf:RDF>
      <cc:Work
         rdf:about="">
        <dc:format>image/svg+xml</dc:format>
        <dc:type
           rdf:resource="http://purl.org/dc/dcmitype/StillImage" />
        <dc:title />
      </cc:Work>
    </rdf:RDF>
  </metadata>
  <g
     inkscape:label="Layer 1"
     inkscape:groupmode="layer"
     id="layer1"
     transform="translate(0,-177)">
    <ellipse
       style="fill:none;stroke:#000000;stroke-width:0.964999"
       id="path1"
       cx="89.402985"
       cy="237.79936"
       rx="41.774612"
       ry="36.319965" />
    <ellipse
       style="fill:none;stroke:#000000;stroke-width:0.964999"
       id="path2"
       cx="130.77849"
       cy="234.73944"
       rx="40.311169"
       ry="36.719086" />
    <path
       style="fill:none;stroke:#000000;stroke-width:0.964999"
       d="m 114.68062,209.99396 c -2.6278,0.0204 -5.15505,1.77929 -7.45025,2.92688 -0.95854,0.47928 -2.01566,0.76632 -2.92688,1.33041 -1.82555,1.1301 -3.28356,2.7788 -5.055526,3.9912 -9.060037,6.19897 3.056156,-2.331 -5.055526,2.6608 -1.345184,0.82781 -0.698463,1.0865 -1.862563,1.86257 -0.233368,0.15557 -0.557737,0.12177 -0.79824,0.26608 -0.710261,0.42615 -1.248683,1.3304 -2.128645,1.3304"
       id="path4" />
    <path
       style="fill:none;stroke:#000000;stroke-width:0.964999"
       d="m 120.53439,215.31557 c -3.21038,1.56359 -6.59561,3.06667 -9.57889,5.05552 -0.47254,0.31503 -0.84342,0.77214 -1.3304,1.06433 -0.40957,0.24573 -0.933,0.26721 -1.3304,0.53215 -0.41747,0.27831 -0.66295,0.76329 -1.06433,1.06433 -0.31732,0.23799 -0.72796,0.32194 -1.06432,0.53216 -0.74015,0.46259 -2.03341,1.50125 -2.6608,2.12864 -1.19289,1.19289 -2.22704,2.97608 -3.725127,3.72513 -0.521988,0.26099 0.02037,0.53215 -0.532159,0.53215"
       id="path5" />
    <path
       style="fill:none;stroke:#000000;stroke-width:0.964999"
       d="m 129.31504,221.7015 c -3.4591,1.33298 -6.79171,2.86369 -10.11105,4.52336 -1.04146,0.52073 -6.64438,3.01443 -7.45025,3.45904 -3.92124,2.16345 -7.33225,5.17932 -11.17537,7.45026 -0.752051,0.44438 -1.641805,0.62142 -2.394729,1.06432 -2.006529,1.18031 -3.687972,2.88973 -5.321605,4.52336"
       id="path6" />
    <path
       style="fill:none;stroke:#000000;stroke-width:0.964999"
       d="m 126.65424,230.48215 c 0,0.35477 -0.35478,1.06432 0,1.06432 0.35477,0 0.26936,-1.29521 0,-1.06432 -0.82201,0.70457 -1.15799,1.8388 -1.86257,2.6608 -1.29125,1.50647 -3.64266,2.75311 -5.3216,3.72512 -4.30489,2.49231 -1.73396,0.81087 -6.65201,3.45905 -1.08489,0.58417 -2.09088,1.31152 -3.19296,1.86256 -1.03129,0.51565 -2.15196,0.83468 -3.19297,1.3304 -2.59903,1.23763 -6.460361,3.79956 -8.514568,5.85377"
       id="path7" />
    <path
       style="fill:none;stroke:#000000;stroke-width:0.964999"
       d="m 122.66303,241.39144 c -0.62085,0.79824 -1.14749,1.67965 -1.86256,2.39472 -0.45225,0.45225 -1.07604,0.69258 -1.59648,1.06432 -2.40064,1.71475 -2.23196,1.87079 -5.05553,3.45905 -2.6283,1.47842 -5.3541,2.77886 -7.98241,4.25728 -0.98728,0.55535 -2.59999,1.26959 -3.45904,2.12865"
       id="path8" />
    <path
       style="fill:none;stroke:#000000;stroke-width:0.964999"
       d="m 118.67183,249.90601 c -0.96961,0.3317 -0.91512,1.56084 -1.59648,2.12864 -0.54934,0.45778 -1.30419,0.61762 -1.86257,1.06432 -0.63598,0.50879 -1.22657,1.0877 -1.86256,1.59649 -0.66849,0.53478 -1.46015,0.79561 -2.12864,1.3304 -0.54421,0.43537 -1.39423,0.86207 -1.86256,1.3304 -0.37341,0.37341 -0.18592,0.79824 -0.79825,0.79824"
       id="path9" />
    <path
       style="fill:none;stroke:#000000;stroke-width:0.964999"
       d="m 130.11328,251.23641 c -0.35477,0.26608 -1.3304,0.44347 -1.06432,0.79824 0.26608,0.35478 1.43331,-1.04423 1.06432,-0.79824 -1.7321,1.15474 -3.01828,2.0413 -4.78944,2.92689 -0.57206,0.28602 -1.00862,0.81238 -1.59649,1.06432 -0.33612,0.14405 -0.73723,0.10253 -1.06432,0.26608 -0.87473,0.43737 -1.64017,1.25892 -2.39472,1.86256 -1.02443,0.81955 -1.98951,1.45735 -2.92688,2.39472"
       id="path10" />
  </g>
</svg>
